<?xml version="1.0" encoding="UTF-8" standalone="no"?> <svg xmlns:dc="http://purl.org/dc/elements/1.1/" xmlns:cc="http://creativecommons.org/ns#" xmlns:rdf="http://www.w3.org/1999/02/22-rdf-syntax-ns#" xmlns:svg="http://www.w3.org/2000/svg" xmlns="http://www.w3.org/2000/svg" xmlns:sodipodi="http://sodipodi.sourceforge.net/DTD/sodipodi-0.dtd" xmlns:inkscape="http://www.inkscape.org/namespaces/inkscape" id="Layer_1" data-name="Layer 1" viewBox="0 0 474.04055 131.4606" version="1.1" sodipodi:docname="IDC-Logo-3-no-white-bg-white-letters.svg" width="474.04056" height="131.4606" inkscape:version="1.0.2-2 (e86c870879, 2021-01-15)"><metadata id="metadata118"></metadata><defs id="defs4"><style id="style2">.cls-1{fill:#fff;}.cls-2{fill:#333;}.cls-3{fill:#48c7f4;}</style></defs><rect class="cls-1" x="9.0205603" y="56.399948" width="19" height="19" id="rect6"></rect><rect class="cls-1" x="51.020561" y="52.399948" width="28" height="28" id="rect8"></rect><rect class="cls-1" x="105.02055" y="56.399948" width="20" height="20" id="rect10"></rect><rect class="cls-1" x="383.02054" y="107.39995" width="83" height="16" id="rect12"></rect><g id="Logo" transform="translate(5.6018191e-4,-5.4884201e-5)"><path class="cls-2" d="M 168.11,98.77 V 68.23 h 10.41 a 18.5,18.5 0 0 1 8.95,1.86 c 4.34,2.48 7.06,7.18 7.06,13.41 0,10.07 -5.94,15.27 -15.48,15.27 z m 11.31,-6.85 c 4.5,0 7.31,-2.8 7.31,-8.38 0,-5.58 -2.77,-8.46 -7.27,-8.46 h -3.55 v 16.84 z" transform="translate(-18.98,-7.6)" id="path14"></path><path class="cls-2" d="M 199.15,98.77 V 68.23 h 17 v 6.85 h -9.49 v 4.75 h 9.21 v 6.85 h -9.21 v 5.24 h 9.49 v 6.85 z" transform="translate(-18.98,-7.6)" id="path16"></path><path class="cls-2" d="m 239.93,98.77 -11.72,-18.65 0.2,18.65 h -7.47 V 68.23 h 6.73 l 11.89,19.32 -0.33,-19.32 h 7.47 v 30.54 z" transform="translate(-18.98,-7.6)" id="path18"></path><path class="cls-2" d="M 255.94,98.77 V 75.08 h -6 v -6.85 h 19.81 v 6.85 h -6 v 23.69 z" transform="translate(-18.98,-7.6)" id="path20"></path><path class="cls-2" d="M 291.52,98.77 290,94.36 h -10.6 l -1.61,4.41 h -8.38 L 281.7,68.23 h 6.15 L 300,98.77 Z m -6.69,-21 h -0.12 l -3.14,10.44 H 288 Z" transform="translate(-18.98,-7.6)" id="path22"></path><path class="cls-2" d="M 303.32,98.77 V 68.23 h 7.8 v 23.69 h 9 v 6.85 z" transform="translate(-18.98,-7.6)" id="path24"></path><path class="cls-2" d="m 358.09,79.83 a 8,8 0 0 0 -7.39,-5.32 c -4.87,0 -8.17,4.16 -8.17,8.91 0,5 3.39,9.08 8.22,9.08 3.09,0 5.73,-1.73 7.34,-5.16 h 8.17 a 16.1,16.1 0 0 1 -26.82,7.43 15.47,15.47 0 0 1 -4.71,-11.72 15.8,15.8 0 0 1 15.73,-15.4 15.53,15.53 0 0 1 10.65,3.76 14.23,14.23 0 0 1 5.15,8.42 z" transform="translate(-18.98,-7.6)" id="path26"></path><path class="cls-2" d="M 370.31,98.77 V 68.23 h 17 v 6.85 h -9.49 v 4.75 H 387 v 6.85 h -9.2 v 5.24 h 9.49 v 6.85 z" transform="translate(-18.98,-7.6)" id="path28"></path><path class="cls-2" d="m 411.09,98.77 -11.73,-18.65 0.21,18.65 H 392.1 V 68.23 h 6.73 l 11.88,19.32 -0.33,-19.32 h 7.48 v 30.54 z" transform="translate(-18.98,-7.6)" id="path30"></path><path class="cls-2" d="M 427.1,98.77 V 75.08 h -6 v -6.85 h 19.82 v 6.85 h -6 v 23.69 z" transform="translate(-18.98,-7.6)" id="path32"></path><path class="cls-2" d="M 444,98.77 V 68.23 h 17 v 6.85 h -9.49 v 4.75 h 9.21 v 6.85 h -9.21 v 5.24 H 461 v 6.85 z" transform="translate(-18.98,-7.6)" id="path34"></path><path class="cls-2" d="m 480.42,98.77 -7.05,-9.86 h -0.09 v 9.86 h -7.47 V 68.23 h 10 a 18.65,18.65 0 0 1 7.19,1.12 10.08,10.08 0 0 1 5.62,9.41 c 0,4.83 -2.89,8.79 -7.6,9.61 l 8.3,10.4 z m -4.25,-15.18 c 3.1,0 5,-1.45 5,-4.38 0,-2.64 -2,-4.13 -4.91,-4.13 h -3 v 8.51 z" transform="translate(-18.98,-7.6)" id="path36"></path><path class="cls-2" d="M 169.06,52.64 V 22.1 h 7.8 v 30.54 z" transform="translate(-18.98,-7.6)" id="path38"></path><path class="cls-2" d="m 212.52,31 c -0.33,-2.19 -1.24,-3 -2.76,-3 a 2.55,2.55 0 0 0 -2.69,2.39 c 0,1.82 1.66,2.65 5,4.09 6.73,2.89 8.42,5.32 8.42,9.33 0,5.9 -4.05,9.37 -10.65,9.37 -6.6,0 -11,-3.47 -11,-10 v -0.66 h 7.76 c 0,2.51 1.28,4.17 3.22,4.17 a 2.91,2.91 0 0 0 2.93,-2.93 c 0,-2.44 -3.39,-3.51 -6.15,-4.63 -5,-2 -7.26,-4.66 -7.26,-8.62 0,-5.2 5,-9 10.64,-9 a 11.55,11.55 0 0 1 5.41,1.28 c 3.26,1.69 4.83,4.13 4.87,8.21 z" transform="translate(-18.98,-7.6)" id="path40"></path><path class="cls-2" d="M 246,52.64 V 29 h -6 v -6.9 h 19.81 V 29 h -6 v 23.64 z" transform="translate(-18.98,-7.6)" id="path42"></path><path class="cls-2" d="m 299.77,52.64 -1.48,-4.42 h -10.61 l -1.61,4.42 h -8.38 L 290,22.1 h 6.15 l 12.14,30.54 z m -6.68,-21 h -0.13 L 289.83,42 h 6.39 z" transform="translate(-18.98,-7.6)" id="path44"></path><path class="cls-2" d="M 348.52,52.64 336.8,34 337,52.66 h -7.47 V 22.1 h 6.73 l 11.89,19.31 -0.33,-19.31 h 7.47 v 30.54 z" transform="translate(-18.98,-7.6)" id="path46"></path><path class="cls-2" d="M 379,52.64 V 22.1 h 9.78 a 23.19,23.19 0 0 1 4.87,0.37 7.69,7.69 0 0 1 6.35,7.59 6.88,6.88 0 0 1 -3.55,6.19 7,7 0 0 1 5,7.1 8.64,8.64 0 0 1 -3.45,7.23 c -2.39,1.69 -4,2.06 -8.79,2.06 z m 10.56,-19 c 1.94,0 3,-0.82 3,-2.43 0,-1.61 -1,-2.31 -2.93,-2.31 h -3.13 v 4.74 z m 0.91,12.1 c 2.19,0 3.55,-0.95 3.55,-2.93 0,-1.78 -1.2,-2.64 -3.51,-2.64 h -4 v 5.57 z" transform="translate(-18.98,-7.6)" id="path48"></path><path class="cls-2" d="m 439.44,22.1 h 7.8 v 18.69 c 0,3.18 -0.49,5.58 -1.53,7.23 -2,3.26 -5.44,5.2 -10.07,5.2 a 12.84,12.84 0 0 1 -6.52,-1.53 C 425.53,49.58 423.8,46.74 423.8,40.83 V 22.1 h 7.8 v 18.61 c 0,3.8 1.2,5.66 4,5.66 2.8,0 3.88,-1.33 3.88,-5.62 z" transform="translate(-18.98,-7.6)" id="path50"></path><path class="cls-2" d="M 471.06,52.64 V 22.1 h 7.8 v 23.69 h 9 v 6.85 z" transform="translate(-18.98,-7.6)" id="path52"></path><path class="cls-3" d="M 62.75,130.44 A 211.78,211.78 0 0 1 56.67,104 2.83,2.83 0 0 0 54.28,101.66 211.13,211.13 0 0 1 27.91,96.17 2.81,2.81 0 0 0 24.6,100 66,66 0 0 0 59,133.82 a 2.81,2.81 0 0 0 3.75,-3.38 z" transform="translate(-18.98,-7.6)" id="path54"></path><path class="cls-3" d="m 141.51,96.12 a 211.85,211.85 0 0 1 -27.18,5.61 2.81,2.81 0 0 0 -2.39,2.34 213.86,213.86 0 0 1 -6.18,26.75 2.81,2.81 0 0 0 3.76,3.4 66,66 0 0 0 35.29,-34.22 2.8,2.8 0 0 0 -3.3,-3.88 z" transform="translate(-18.98,-7.6)" id="path56"></path><path class="cls-3" d="M 56.36,14 A 66,66 0 0 0 24.6,46.71 2.8,2.8 0 0 0 27.91,50.54 212.1,212.1 0 0 1 53.13,45.22 2.83,2.83 0 0 0 55.52,42.78 210.73,210.73 0 0 1 60.29,17.24 2.81,2.81 0 0 0 56.36,14 Z" transform="translate(-18.98,-7.6)" id="path58"></path><path class="cls-3" d="m 84.71,42.9 q 8.45,0 16.73,0.65 a 2.81,2.81 0 0 0 3,-3.18 212.77,212.77 0 0 0 -6.26,-29.81 2.81,2.81 0 0 0 -2.23,-2 66.21,66.21 0 0 0 -23.36,0.16 2.8,2.8 0 0 0 -2.19,2 210.18,210.18 0 0 0 -6.22,29.73 2.8,2.8 0 0 0 3,3.17 q 8.68,-0.71 17.53,-0.72 z" transform="translate(-18.98,-7.6)" id="path60"></path><path class="cls-3" d="m 84.71,103.77 q -8.22,0 -16.29,-0.62 a 2.82,2.82 0 0 0 -3,3.28 213,213 0 0 0 7.58,30.07 2.8,2.8 0 0 0 2.27,1.89 66.79,66.79 0 0 0 18,0.12 2.81,2.81 0 0 0 2.3,-1.9 210.93,210.93 0 0 0 7.6,-30.11 2.82,2.82 0 0 0 -3,-3.29 q -7.65,0.56 -15.46,0.56 z" transform="translate(-18.98,-7.6)" id="path62"></path><path class="cls-3" d="m 108.23,16.82 a 211.52,211.52 0 0 1 4.86,25.84 2.83,2.83 0 0 0 2.4,2.45 213.24,213.24 0 0 1 26,5.43 2.8,2.8 0 0 0 3.31,-3.84 65.94,65.94 0 0 0 -32.7,-33.12 2.81,2.81 0 0 0 -3.87,3.24 z" transform="translate(-18.98,-7.6)" id="path64"></path><path class="cls-3" d="m 53.88,69.36 q 0,-6.3 0.36,-12.52 A 2.82,2.82 0 0 0 51,53.9 211.87,211.87 0 0 0 21.75,60.71 2.78,2.78 0 0 0 19.8,63 a 66,66 0 0 0 0,20.75 2.79,2.79 0 0 0 1.94,2.25 211.28,211.28 0 0 0 29.88,6.9 2.81,2.81 0 0 0 3.23,-3 Q 53.89,79.71 53.88,69.36 Z M 39.17,83 h -4.5 V 65.36 h 4.5 z" transform="translate(-18.98,-7.6)" id="path66"></path><path class="cls-3" d="m 105.89,54.65 a 2.8,2.8 0 0 0 -2.57,-2.59 q -9.21,-0.8 -18.61,-0.81 -9.84,0 -19.45,0.88 a 2.79,2.79 0 0 0 -2.53,2.59 q -0.49,7.26 -0.5,14.64 a 216.55,216.55 0 0 0 1.2,22.75 2.8,2.8 0 0 0 2.57,2.49 q 9.25,0.81 18.74,0.81 9.06,0 17.93,-0.74 a 2.79,2.79 0 0 0 2.54,-2.49 215.05,215.05 0 0 0 1.21,-22.82 q -0.03,-7.43 -0.53,-14.71 z M 84.17,83.81 H 77 V 63.72 h 6.84 a 12.19,12.19 0 0 1 5.89,1.22 c 2.85,1.63 4.64,4.72 4.64,8.82 -0.02,6.63 -3.93,10.05 -10.2,10.05 z" transform="translate(-18.98,-7.6)" id="path68"></path><path class="cls-3" d="M 84.44,68.23 H 82.11 V 79.3 h 2.3 c 3,0 4.81,-1.84 4.81,-5.51 0,-3.67 -1.82,-5.56 -4.78,-5.56 z" transform="translate(-18.98,-7.6)" id="path70"></path><path class="cls-3" d="m 149.62,63 a 2.81,2.81 0 0 0 -1.94,-2.25 212.89,212.89 0 0 0 -30.07,-6.94 2.81,2.81 0 0 0 -3.23,2.95 q 0.36,6.27 0.37,12.64 0,10.41 -1,20.58 A 2.82,2.82 0 0 0 117,93 a 213.85,213.85 0 0 0 30.7,-7 2.84,2.84 0 0 0 1.94,-2.26 66,66 0 0 0 0,-20.74 z m -16.86,16.39 a 4.63,4.63 0 0 0 4.24,-3 h 4.73 a 9.31,9.31 0 0 1 -15.51,4.3 9,9 0 0 1 -2.72,-6.78 9.12,9.12 0 0 1 9.09,-8.91 9,9 0 0 1 6.16,2.17 8.21,8.21 0 0 1 3,4.86 H 137 A 4.6,4.6 0 0 0 132.73,69 4.88,4.88 0 0 0 128,74.14 c 0,2.86 2,5.25 4.76,5.25 z" transform="translate(-18.98,-7.6)" id="path72"></path><path class="cls-2" d="m 165.79,120.16 a 0.74,0.74 0 0 1 -0.08,-0.38 0.47,0.47 0 0 1 0.25,-0.47 4.74,4.74 0 0 1 1.5,-0.14 c 1,0 1.94,0 2.75,-0.11 0.81,-0.11 2.08,-0.22 3.77,-0.46 a 15.15,15.15 0 0 1 1.84,-0.13 5.73,5.73 0 0 1 0.84,0.06 3.94,3.94 0 0 1 0.56,0.1 0.43,0.43 0 0 1 0.26,0.28 1,1 0 0 1 0.11,0.35 c 0,0.36 -0.13,0.55 -0.39,0.55 -0.26,0 -0.4,0 -0.7,0 -0.3,0 -0.7,0 -1.21,0 -0.51,0 -1.16,0 -1.91,0.11 -0.75,0.11 -1.16,0.2 -1.24,0.37 a 22,22 0 0 0 -0.41,3 c -0.18,1.83 -0.28,3.2 -0.28,4.1 a 6.42,6.42 0 0 0 0.2,1.45 1.5,1.5 0 0 1 0,0.18 1.08,1.08 0 0 1 -0.19,0.61 0.52,0.52 0 0 1 -0.45,0.28 0.78,0.78 0 0 1 -0.66,-0.39 5,5 0 0 1 -0.27,-2.16 61.57,61.57 0 0 1 0.64,-6.56 v -0.27 c 0,-0.18 -0.09,-0.26 -0.28,-0.26 -0.19,0 -0.9,0 -1.77,0.11 -0.87,0.11 -1.49,0.12 -1.86,0.12 a 1.52,1.52 0 0 1 -1.02,-0.34 z" transform="translate(-18.98,-7.6)" id="path74"></path><path class="cls-2" d="m 181.23,127.23 c 1.91,-3.54 3.49,-5.3 4.73,-5.3 a 0.91,0.91 0 0 1 0.8,0.56 7.93,7.93 0 0 1 0.5,2.5 6,6 0 0 0 0.88,3 1.4,1.4 0 0 1 0.34,0.69 0.47,0.47 0 0 1 -0.23,0.37 0.77,0.77 0 0 1 -0.49,0.17 1.31,1.31 0 0 1 -1.07,-0.67 5.16,5.16 0 0 1 -0.59,-2.37 13,13 0 0 0 -0.28,-2.1 c -0.1,-0.33 -0.26,-0.5 -0.49,-0.5 -0.54,0 -1.62,1.42 -3.26,4.24 a 12.23,12.23 0 0 1 -1.08,1.65 0.93,0.93 0 0 1 -0.63,0.39 0.8,0.8 0 0 1 -0.57,-0.2 0.61,0.61 0 0 1 -0.23,-0.49 5.43,5.43 0 0 1 0.12,-0.83 q 0.94,-4.91 1.5,-9.69 a 3.37,3.37 0 0 1 0.39,-1.49 c 0.19,-0.25 0.34,-0.37 0.46,-0.37 a 0.83,0.83 0 0 1 0.6,0.27 1,1 0 0 1 0.27,0.75 15.54,15.54 0 0 1 -0.69,3.89 c -0.23,0.82 -0.46,1.86 -0.72,3.12 a 17.42,17.42 0 0 0 -0.37,2.34 c 0,0.06 0,0.09 0.08,0.09 z" transform="translate(-18.98,-7.6)" id="path76"></path><path class="cls-2" d="m 199.3,126.93 c 0,0.52 -0.46,1.15 -1.39,1.89 a 4.54,4.54 0 0 1 -2.87,1.12 2.48,2.48 0 0 1 -1.92,-0.74 2.9,2.9 0 0 1 -0.68,-2 6.93,6.93 0 0 1 1.49,-4.2 4.17,4.17 0 0 1 3.26,-2 1.26,1.26 0 0 1 0.94,0.38 1.25,1.25 0 0 1 0.37,0.91 3.15,3.15 0 0 1 -1.17,2.28 14.94,14.94 0 0 1 -3.11,2.13 0.61,0.61 0 0 0 -0.4,0.54 1.31,1.31 0 0 0 1.46,1.41 4.83,4.83 0 0 0 3.39,-1.83 c 0.17,-0.17 0.3,-0.26 0.39,-0.26 0.09,0 0.24,0.1 0.24,0.37 z m -5.36,-1.21 q 3.27,-1.93 3.27,-3.12 c 0,-0.31 -0.14,-0.46 -0.42,-0.46 a 2.37,2.37 0 0 0 -1.6,1 6,6 0 0 0 -1.25,2.58 z" transform="translate(-18.98,-7.6)" id="path78"></path><path class="cls-2" d="m 220.52,120.93 c 0,-0.68 -0.18,-1.1 -0.53,-1.25 a 3.45,3.45 0 0 0 -1.33,-0.23 6.74,6.74 0 0 0 -3,0.65 c -0.88,0.43 -1.33,0.94 -1.33,1.54 a 1.42,1.42 0 0 0 0.59,1.13 8.3,8.3 0 0 0 2.57,1.06 9.44,9.44 0 0 1 2.74,1.15 1.72,1.72 0 0 1 0.81,1.42 2.64,2.64 0 0 1 -1.13,1.82 7.77,7.77 0 0 1 -2.74,1.48 9.17,9.17 0 0 1 -2.71,0.51 3.48,3.48 0 0 1 -1.42,-0.22 c -0.32,-0.14 -0.48,-0.33 -0.48,-0.55 a 1.67,1.67 0 0 1 0.14,-0.57 c 0.1,-0.22 0.19,-0.33 0.29,-0.33 a 1.25,1.25 0 0 1 0.32,0.05 4.52,4.52 0 0 0 1.63,0.31 6.68,6.68 0 0 0 3.09,-0.85 c 1.09,-0.57 1.64,-1.1 1.64,-1.59 0,-0.21 -0.17,-0.42 -0.5,-0.61 a 17.24,17.24 0 0 0 -2.52,-0.93 6.72,6.72 0 0 1 -3.08,-1.55 2.58,2.58 0 0 1 -0.57,-1.58 2.93,2.93 0 0 1 1.84,-2.59 8.17,8.17 0 0 1 3.86,-1 3.87,3.87 0 0 1 2.05,0.45 1.24,1.24 0 0 1 0.72,1 2.72,2.72 0 0 1 -0.17,0.76 0.74,0.74 0 0 1 -0.78,0.52 z" transform="translate(-18.98,-7.6)" id="path80"></path><path class="cls-2" d="m 231.6,123.44 q -0.72,0 -3.07,4.25 a 14.83,14.83 0 0 1 -0.93,1.56 1.07,1.07 0 0 1 -0.48,0.22 2.07,2.07 0 0 1 -0.58,0.1 c -0.35,0 -0.52,-0.67 -0.52,-2 a 29.51,29.51 0 0 1 0.49,-4.1 12.79,12.79 0 0 0 0.2,-1.72 q 0,-0.51 0.45,-0.51 c 0.57,0 0.86,0.41 0.86,1.23 a 17.32,17.32 0 0 1 -0.29,2.27 21.66,21.66 0 0 0 -0.33,2.34 11.23,11.23 0 0 0 1.4,-2 15.17,15.17 0 0 1 1.93,-2.71 1.87,1.87 0 0 1 1.29,-0.58 c 0.33,0 0.6,0.22 0.79,0.67 a 10.81,10.81 0 0 1 0.36,3.2 3.29,3.29 0 0 0 0.12,0.94 c 0.07,0.21 0.11,0.31 0.15,0.31 0.24,0 0.76,-0.82 1.57,-2.47 a 9,9 0 0 1 1.26,-2 1.82,1.82 0 0 1 1.36,-0.68 1,1 0 0 1 0.91,0.65 6.39,6.39 0 0 1 0.41,1.91 18.61,18.61 0 0 0 0.36,2.34 1.83,1.83 0 0 0 0.89,1.37 c 0.29,0.14 0.44,0.3 0.44,0.48 a 0.76,0.76 0 0 1 -0.37,0.56 1.14,1.14 0 0 1 -0.68,0.28 1.35,1.35 0 0 1 -1.1,-0.75 8.49,8.49 0 0 1 -0.73,-3.27 c -0.08,-0.68 -0.15,-1.15 -0.21,-1.44 -0.06,-0.29 -0.18,-0.42 -0.32,-0.42 -0.14,0 -0.47,0.2 -0.77,0.62 a 25.86,25.86 0 0 0 -1.43,2.5 13.27,13.27 0 0 1 -1.17,2 1.08,1.08 0 0 1 -0.76,0.49 0.82,0.82 0 0 1 -0.6,-0.27 1.27,1.27 0 0 1 -0.33,-0.64 c 0,-0.25 -0.09,-0.86 -0.15,-1.84 a 7.25,7.25 0 0 0 -0.42,-2.89 z" transform="translate(-18.98,-7.6)" id="path82"></path><path class="cls-2" d="m 246.33,127.83 a 6.06,6.06 0 0 0 0.16,1.32 1.11,1.11 0 0 1 0,0.23 c 0,0.09 -0.08,0.21 -0.25,0.36 a 0.8,0.8 0 0 1 -0.54,0.22 c -0.5,0 -0.75,-0.46 -0.75,-1.37 a 27,27 0 0 1 0.59,-4.49 11.94,11.94 0 0 0 0.2,-1.32 1.89,1.89 0 0 1 0.17,-0.83 0.56,0.56 0 0 1 0.51,-0.35 1,1 0 0 1 0.62,0.19 0.55,0.55 0 0 1 0.22,0.42 2.31,2.31 0 0 1 -0.1,0.61 27,27 0 0 0 -0.72,2.92 13.93,13.93 0 0 0 -0.11,2.09 z m 1,-8.62 c -0.11,0 -0.19,-0.11 -0.25,-0.34 a 1.13,1.13 0 0 0 -0.08,-0.24 2.36,2.36 0 0 1 -0.21,-0.87 0.85,0.85 0 0 1 0.37,-0.63 1.16,1.16 0 0 1 0.81,-0.32 0.91,0.91 0 0 1 0.5,0.17 c 0.19,0.12 0.28,0.23 0.28,0.34 a 3.28,3.28 0 0 1 -0.19,0.86 1.27,1.27 0 0 1 -0.6,0.82 1.61,1.61 0 0 1 -0.62,0.21 z" transform="translate(-18.98,-7.6)" id="path84"></path><path class="cls-2" d="m 255,116.48 c 0.37,0 0.55,0.24 0.55,0.71 a 15.46,15.46 0 0 1 -0.67,3 22.69,22.69 0 0 0 -0.65,3.3 23,23 0 0 0 -0.24,2.83 19.31,19.31 0 0 0 0.17,2.53 3.23,3.23 0 0 1 0,0.35 0.9,0.9 0 0 1 -0.27,0.66 0.74,0.74 0 0 1 -0.55,0.28 q -0.41,0 -0.57,-0.51 a 6.26,6.26 0 0 1 -0.16,-1.64 40.48,40.48 0 0 1 0.63,-6.4 21.42,21.42 0 0 1 1,-4.47 c 0.23,-0.42 0.48,-0.64 0.76,-0.64 z" transform="translate(-18.98,-7.6)" id="path86"></path><path class="cls-2" d="m 266.23,126.93 c 0,0.52 -0.46,1.15 -1.39,1.89 a 4.51,4.51 0 0 1 -2.87,1.12 2.48,2.48 0 0 1 -1.92,-0.74 2.9,2.9 0 0 1 -0.67,-2 6.87,6.87 0 0 1 1.49,-4.2 4.14,4.14 0 0 1 3.25,-2 1.26,1.26 0 0 1 1.31,1.29 3.17,3.17 0 0 1 -1.16,2.28 15.31,15.31 0 0 1 -3.12,2.13 0.61,0.61 0 0 0 -0.4,0.54 1.42,1.42 0 0 0 0.37,1 1.44,1.44 0 0 0 1.1,0.38 4.83,4.83 0 0 0 3.38,-1.83 c 0.17,-0.17 0.3,-0.26 0.39,-0.26 0.09,0 0.24,0.13 0.24,0.4 z m -5.36,-1.21 q 3.27,-1.93 3.27,-3.12 c 0,-0.31 -0.14,-0.46 -0.41,-0.46 a 2.33,2.33 0 0 0 -1.6,1 5.9,5.9 0 0 0 -1.26,2.58 z" transform="translate(-18.98,-7.6)" id="path88"></path><path class="cls-2" d="m 286.29,118.5 c 0,0 0.07,0.17 0.07,0.38 a 1.29,1.29 0 0 1 -0.07,0.5 l 0.1,0.33 a 14.24,14.24 0 0 0 0.5,1.49 c 0.21,0.53 0.41,1.09 0.61,1.69 a 26.87,26.87 0 0 0 1.43,3.55 7.86,7.86 0 0 0 1.37,2.08 c 0.25,0.26 0.41,0.43 0.48,0.52 a 0.64,0.64 0 0 1 0.09,0.34 0.81,0.81 0 0 1 -0.22,0.58 0.76,0.76 0 0 1 -0.55,0.23 c -0.65,0 -1.45,-1 -2.39,-3.11 -0.37,-0.82 -0.6,-1.23 -0.68,-1.23 a 12.15,12.15 0 0 0 -1.59,0.23 21.69,21.69 0 0 0 -2.23,0.52 3.51,3.51 0 0 1 -0.74,0.18 0.61,0.61 0 0 1 -0.4,-0.19 0.12,0.12 0 0 0 -0.09,0 c -0.11,0 -0.36,0.33 -0.73,1 -0.62,1.11 -1,1.76 -1.17,2 a 0.69,0.69 0 0 1 -0.54,0.32 0.87,0.87 0 0 1 -0.5,-0.24 0.7,0.7 0 0 1 -0.29,-0.5 1.31,1.31 0 0 1 0.28,-0.67 c 0.18,-0.28 0.56,-0.84 1.13,-1.69 a 45.67,45.67 0 0 0 2.58,-4.25 36.39,36.39 0 0 1 2.1,-3.72 c 0.3,-0.38 0.53,-0.56 0.69,-0.56 a 1,1 0 0 1 0.76,0.22 z m 0.47,6.14 c -0.18,-0.42 -0.44,-1.17 -0.79,-2.26 -0.35,-1.09 -0.62,-1.88 -0.73,-2.13 -0.28,0.59 -0.72,1.44 -1.31,2.53 l -1.39,2.65 a 2.1,2.1 0 0 1 0.85,-0.2 8.46,8.46 0 0 0 0.93,-0.14 c 1.4,-0.28 2.22,-0.43 2.44,-0.45 z" transform="translate(-18.98,-7.6)" id="path90"></path><path class="cls-2" d="m 296.53,126.48 a 2.37,2.37 0 0 0 0.19,-0.39 11.33,11.33 0 0 1 1.93,-3.19 6,6 0 0 1 1,-1 3.46,3.46 0 0 1 0.79,-0.45 2.1,2.1 0 0 1 0.68,-0.13 1.53,1.53 0 0 1 1.1,0.41 1.26,1.26 0 0 1 0.42,0.94 0.71,0.71 0 0 1 -0.15,0.44 0.57,0.57 0 0 1 -0.46,0.19 0.82,0.82 0 0 1 -0.59,-0.29 0.82,0.82 0 0 0 -0.58,-0.28 c -0.53,0 -1.27,0.65 -2.22,1.94 a 9.21,9.21 0 0 0 -1.73,4.28 1.35,1.35 0 0 1 -0.29,0.8 0.89,0.89 0 0 1 -0.61,0.19 c -0.25,0 -0.44,-0.19 -0.55,-0.56 a 7.56,7.56 0 0 1 -0.17,-1.9 c 0,-0.24 0,-0.78 0,-1.6 a 20.76,20.76 0 0 1 0.18,-2.35 c 0,-0.1 0,-0.33 0.08,-0.69 a 3.68,3.68 0 0 1 0.14,-0.82 0.88,0.88 0 0 1 0.33,-0.43 0.84,0.84 0 0 1 0.54,-0.21 0.52,0.52 0 0 1 0.43,0.19 0.59,0.59 0 0 1 0.14,0.39 3.38,3.38 0 0 1 -0.15,0.84 6.94,6.94 0 0 0 -0.21,0.84 3.65,3.65 0 0 1 -0.08,0.55 12.19,12.19 0 0 0 -0.16,1.75 v 0.49 z" transform="translate(-18.98,-7.6)" id="path92"></path><path class="cls-2" d="m 308,130 a 2.34,2.34 0 0 1 -1.78,-0.66 2.63,2.63 0 0 1 -0.62,-1.86 7.37,7.37 0 0 1 1.6,-4.25 c 1.06,-1.49 2.05,-2.23 3,-2.23 a 1.27,1.27 0 0 1 1.07,0.67 2.49,2.49 0 0 1 0.46,1.44 1.51,1.51 0 0 1 -0.2,0.78 c -0.13,0.22 -0.26,0.33 -0.4,0.33 -0.3,0 -0.51,-0.3 -0.63,-0.91 -0.12,-0.61 -0.34,-1 -0.6,-1 -0.54,0 -1.17,0.64 -1.9,1.91 a 6.83,6.83 0 0 0 -1.1,3.21 c 0,0.88 0.5,1.32 1.49,1.32 a 4.93,4.93 0 0 0 2.67,-1.07 1.74,1.74 0 0 1 0.8,-0.38 c 0.17,0 0.26,0.1 0.26,0.3 0,0.39 -0.46,0.89 -1.38,1.48 A 5,5 0 0 1 308,130 Z" transform="translate(-18.98,-7.6)" id="path94"></path><path class="cls-2" d="m 318,127.23 c 1.91,-3.54 3.49,-5.3 4.73,-5.3 a 0.91,0.91 0 0 1 0.8,0.56 7.93,7.93 0 0 1 0.5,2.5 6.13,6.13 0 0 0 0.87,3 1.35,1.35 0 0 1 0.35,0.69 0.47,0.47 0 0 1 -0.23,0.37 0.77,0.77 0 0 1 -0.49,0.17 1.31,1.31 0 0 1 -1.07,-0.67 5.16,5.16 0 0 1 -0.59,-2.37 13,13 0 0 0 -0.28,-2.1 c -0.1,-0.33 -0.26,-0.5 -0.49,-0.5 -0.54,0 -1.62,1.42 -3.26,4.24 a 12.23,12.23 0 0 1 -1.08,1.65 0.93,0.93 0 0 1 -0.63,0.39 0.8,0.8 0 0 1 -0.57,-0.2 0.61,0.61 0 0 1 -0.23,-0.49 5.43,5.43 0 0 1 0.12,-0.83 q 0.94,-4.91 1.5,-9.69 a 3.37,3.37 0 0 1 0.39,-1.49 c 0.19,-0.25 0.34,-0.37 0.46,-0.37 a 0.83,0.83 0 0 1 0.6,0.27 1,1 0 0 1 0.27,0.75 15.54,15.54 0 0 1 -0.69,3.89 c -0.23,0.82 -0.46,1.86 -0.72,3.12 a 17.42,17.42 0 0 0 -0.37,2.34 c 0,0.06 0,0.09 0.08,0.09 z" transform="translate(-18.98,-7.6)" id="path96"></path><path class="cls-2" d="m 330.92,127.83 a 6.75,6.75 0 0 0 0.16,1.32 1.24,1.24 0 0 1 0,0.23 c 0,0.09 -0.09,0.21 -0.26,0.36 a 0.8,0.8 0 0 1 -0.54,0.22 c -0.5,0 -0.75,-0.46 -0.75,-1.37 a 27,27 0 0 1 0.59,-4.49 11.94,11.94 0 0 0 0.2,-1.32 1.76,1.76 0 0 1 0.18,-0.83 0.54,0.54 0 0 1 0.5,-0.35 1,1 0 0 1 0.62,0.19 0.56,0.56 0 0 1 0.23,0.42 2.39,2.39 0 0 1 -0.11,0.61 27,27 0 0 0 -0.72,2.92 13.93,13.93 0 0 0 -0.1,2.09 z m 1,-8.62 c -0.11,0 -0.19,-0.11 -0.24,-0.34 a 1.17,1.17 0 0 0 -0.09,-0.24 2.36,2.36 0 0 1 -0.21,-0.87 0.85,0.85 0 0 1 0.37,-0.63 1.16,1.16 0 0 1 0.81,-0.32 0.91,0.91 0 0 1 0.5,0.17 c 0.19,0.12 0.28,0.23 0.28,0.34 a 3.28,3.28 0 0 1 -0.19,0.86 1.24,1.24 0 0 1 -0.6,0.82 1.52,1.52 0 0 1 -0.62,0.21 z" transform="translate(-18.98,-7.6)" id="path98"></path><path class="cls-2" d="m 340,121.76 q 0.79,-0.06 1.5,-0.15 a 10.75,10.75 0 0 1 1.15,-0.07 1.61,1.61 0 0 1 0.74,0.1 0.43,0.43 0 0 1 0.16,0.38 c 0,0.42 -0.29,0.64 -0.87,0.68 -0.75,0 -1.44,0.11 -2.06,0.19 a 3.45,3.45 0 0 0 -1,0.21 14.46,14.46 0 0 0 -0.47,1.83 14,14 0 0 0 -0.39,2.28 1.94,1.94 0 0 0 0.23,1.13 0.78,0.78 0 0 0 0.67,0.28 3.42,3.42 0 0 0 1.84,-1 1.31,1.31 0 0 1 0.7,-0.41 c 0.22,0 0.33,0.12 0.33,0.35 0,0.38 -0.35,0.86 -1.06,1.44 a 3.45,3.45 0 0 1 -2.19,0.89 c -1.25,0 -1.87,-0.74 -1.87,-2.2 a 12.07,12.07 0 0 1 0.39,-2.46 14.54,14.54 0 0 0 0.37,-2 q 0,-0.12 -0.18,-0.12 l -0.8,0.07 c -0.66,0 -1,-0.26 -1,-0.79 0,-0.29 0.15,-0.44 0.46,-0.44 h 1.58 a 0.36,0.36 0 0 0 0.29,-0.15 4.08,4.08 0 0 0 0.36,-1 c 0.16,-0.56 0.3,-1.11 0.43,-1.66 0.13,-0.55 0.36,-0.81 0.72,-0.81 a 0.64,0.64 0 0 1 0.52,0.23 0.74,0.74 0 0 1 0.18,0.44 10.44,10.44 0 0 1 -0.27,1.1 z" transform="translate(-18.98,-7.6)" id="path100"></path><path class="cls-2" d="m 353.71,126.93 c 0,0.52 -0.46,1.15 -1.39,1.89 a 4.54,4.54 0 0 1 -2.87,1.12 2.48,2.48 0 0 1 -1.92,-0.74 2.9,2.9 0 0 1 -0.68,-2 6.93,6.93 0 0 1 1.49,-4.2 4.16,4.16 0 0 1 3.26,-2 1.26,1.26 0 0 1 0.94,0.38 1.25,1.25 0 0 1 0.37,0.91 3.15,3.15 0 0 1 -1.17,2.28 14.94,14.94 0 0 1 -3.11,2.13 0.61,0.61 0 0 0 -0.4,0.54 1.31,1.31 0 0 0 1.46,1.41 4.83,4.83 0 0 0 3.39,-1.83 c 0.17,-0.17 0.3,-0.26 0.38,-0.26 0.08,0 0.25,0.1 0.25,0.37 z m -5.36,-1.21 q 3.27,-1.93 3.27,-3.12 c 0,-0.31 -0.14,-0.46 -0.42,-0.46 a 2.37,2.37 0 0 0 -1.6,1 6,6 0 0 0 -1.25,2.58 z" transform="translate(-18.98,-7.6)" id="path102"></path><path class="cls-2" d="m 360.27,130 a 2.34,2.34 0 0 1 -1.78,-0.66 2.63,2.63 0 0 1 -0.62,-1.86 7.45,7.45 0 0 1 1.6,-4.25 c 1.07,-1.49 2.06,-2.23 3,-2.23 a 1.29,1.29 0 0 1 1.08,0.67 2.55,2.55 0 0 1 0.45,1.44 1.51,1.51 0 0 1 -0.2,0.78 c -0.13,0.22 -0.26,0.33 -0.4,0.33 -0.29,0 -0.51,-0.3 -0.63,-0.91 -0.12,-0.61 -0.34,-1 -0.6,-1 -0.54,0 -1.17,0.64 -1.9,1.91 a 6.79,6.79 0 0 0 -1.09,3.21 c 0,0.88 0.49,1.32 1.49,1.32 a 4.93,4.93 0 0 0 2.66,-1.07 1.74,1.74 0 0 1 0.8,-0.38 c 0.17,0 0.26,0.1 0.26,0.3 0,0.39 -0.46,0.89 -1.38,1.48 a 5,5 0 0 1 -2.74,0.92 z" transform="translate(-18.98,-7.6)" id="path104"></path><path class="cls-2" d="m 372.16,121.76 c 0.53,0 1,-0.09 1.49,-0.15 a 11.06,11.06 0 0 1 1.16,-0.07 1.61,1.61 0 0 1 0.74,0.1 0.45,0.45 0 0 1 0.16,0.38 c 0,0.42 -0.29,0.64 -0.88,0.68 -0.59,0.04 -1.43,0.11 -2.06,0.19 a 3.43,3.43 0 0 0 -1,0.21 14.46,14.46 0 0 0 -0.47,1.83 14,14 0 0 0 -0.39,2.28 2,2 0 0 0 0.22,1.13 0.81,0.81 0 0 0 0.67,0.28 3.4,3.4 0 0 0 1.85,-1 1.31,1.31 0 0 1 0.7,-0.41 c 0.22,0 0.33,0.12 0.33,0.35 0,0.38 -0.35,0.86 -1.07,1.44 a 3.41,3.41 0 0 1 -2.18,0.89 c -1.25,0 -1.87,-0.74 -1.87,-2.2 a 12.07,12.07 0 0 1 0.39,-2.46 14.54,14.54 0 0 0 0.37,-2 q 0,-0.12 -0.18,-0.12 l -0.8,0.07 c -0.66,0 -1,-0.26 -1,-0.79 a 0.39,0.39 0 0 1 0.45,-0.44 h 1.59 a 0.36,0.36 0 0 0 0.29,-0.15 4.08,4.08 0 0 0 0.36,-1 c 0.16,-0.56 0.3,-1.11 0.43,-1.66 0.13,-0.55 0.36,-0.81 0.72,-0.81 a 0.65,0.65 0 0 1 0.52,0.23 0.74,0.74 0 0 1 0.18,0.44 9.28,9.28 0 0 1 -0.28,1.1 z" transform="translate(-18.98,-7.6)" id="path106"></path><path class="cls-2" d="m 383.15,127.78 c 0,-0.34 -0.41,-0.72 -1.24,-1.15 a 11.24,11.24 0 0 1 -2.11,-1.28 1.41,1.41 0 0 1 -0.56,-1.08 3,3 0 0 1 1.54,-2.54 5,5 0 0 1 2.51,-1 1.55,1.55 0 0 1 0.91,0.21 0.9,0.9 0 0 1 0.28,0.75 0.53,0.53 0 0 1 -0.2,0.41 0.66,0.66 0 0 1 -0.32,0.17 0.94,0.94 0 0 1 -0.33,-0.12 1.13,1.13 0 0 0 -0.33,-0.1 4.68,4.68 0 0 0 -1.56,0.56 c -0.79,0.38 -1.19,0.8 -1.19,1.27 a 1,1 0 0 0 0.42,0.79 7.81,7.81 0 0 0 1.5,0.86 5.47,5.47 0 0 1 1.39,0.89 1.43,1.43 0 0 1 0.52,1.11 c 0,0.79 -0.54,1.4 -1.63,1.85 a 8.27,8.27 0 0 1 -3.11,0.67 c -0.83,0 -1.25,-0.29 -1.25,-0.85 a 0.45,0.45 0 0 1 0.29,-0.43 1.14,1.14 0 0 1 0.56,-0.14 2.17,2.17 0 0 1 0.44,0.07 1.74,1.74 0 0 0 0.42,0.08 6.64,6.64 0 0 0 1.84,-0.28 2,2 0 0 0 1.21,-0.72 z" transform="translate(-18.98,-7.6)" id="path108"></path><path class="cls-3" d="m 436.1,120.71 h -1.21 v 3.45 h 1.18 c 1.25,0 2,-0.59 2,-1.78 0,-1.19 -0.78,-1.67 -1.97,-1.67 z" transform="translate(-18.98,-7.6)" id="path110"></path><path class="cls-3" d="M 478.8,109.41 H 406 a 14.22,14.22 0 0 0 0,28.44 h 72.8 a 14.22,14.22 0 0 0 0,-28.44 z m -65.28,11.3 h -2.43 v 9.62 h -3.17 v -9.62 h -2.45 v -2.78 h 8 z m 13.48,4.81 a 5.55,5.55 0 0 1 -0.62,2.93 4.53,4.53 0 0 1 -4.09,2.11 5.22,5.22 0 0 1 -2.65,-0.62 c -1.45,-0.85 -2.16,-2 -2.16,-4.4 v -7.61 h 3.17 v 7.56 c 0,1.54 0.49,2.29 1.61,2.29 1.12,0 1.58,-0.53 1.58,-2.28 v -7.57 H 427 Z m 10.83,4.81 -2.86,-4 v 0 4 h -3 v -12.4 h 4.05 a 7.59,7.59 0 0 1 2.94,0.45 4.1,4.1 0 0 1 2.28,3.82 3.78,3.78 0 0 1 -3.09,3.91 l 3.37,4.22 z m 14.62,0 L 449,125 v 0 5.36 h -3.17 v -12.4 H 449 v 5.58 0 l 3.51,-5.58 h 3.32 l -4.11,6.18 4.37,6.22 z m 14.5,-9.62 h -3.86 v 1.93 h 3.74 v 2.78 h -3.74 v 2.13 h 3.86 v 2.78 H 460 v -12.4 h 6.89 z m 10.54,5.11 v 4.51 h -3.17 v -4.51 l -3.7,-7.89 H 474 l 1.84,5 1.86,-5 h 3.4 z" transform="translate(-18.98,-7.6)" id="path112"></path></g></svg> 